<svg width="745" height="185" viewBox="0 0 745 185" fill="none" xmlns="http://www.w3.org/2000/svg">
<path d="M689 103.357H665.5V81.6429H737.5V177.5H615.5V154.286V152.786H614H590.5V129.571V128.071H589H565.5V56.9286H589H590.5V55.4286V32.2143H614H615.5V30.7143V7.5H737.5V29.2143H639H637.5V30.7143V53.9286H614H612.5V55.4286V129.571V131.071H614H637.5V154.286V155.786H639H689H690.5V154.286V104.857V103.357H689Z" fill="url(#logo-color)" stroke="white" stroke-width="3"/>
<path d="M426.5 80.1429V177.5H379.5V7.5H426.5V30.7143V32.2143H428H451.5V55.4286V56.9286H453H476.5V80.1429V81.6429H478H503H504.5V80.1429V7.5H551.5V177.5H504.5V129.571V128.071H503H479.5V104.857V103.357H478H454.5V80.1429V78.6429H453H428H426.5V80.1429Z" fill="url(#logo-color)" stroke="white" stroke-width="3"/>
<path d="M340.5 154.286V177.5H218.5V154.286V152.786H217H193.5V32.2143H217H218.5V30.7143V7.5H340.5V30.7143V32.2143H342H365.5V152.786H342H340.5V154.286ZM240.5 154.286V155.786H242H317H318.5V154.286V30.7143V29.2143H317H242H240.5V30.7143V154.286Z" fill="url(#logo-color)" stroke="white" stroke-width="3"/>
<path d="M54.5 129.571V177.5H7.5V7.5H154.5V30.7143V32.2143H156H179.5V103.357H156H154.5V104.857V128.071H56H54.5V129.571ZM54.5 104.857V106.357H56H131H132.5V104.857V30.7143V29.2143H131H56H54.5V30.7143V104.857Z" fill="url(#logo-color)" stroke="white" stroke-width="3"/>
<path fill-rule="evenodd" clip-rule="evenodd" d="M608 185V160.267H583V135.535H558V49.4652H583V24.7326H608V0H745V36.6043H645V61.3369H620V123.663H645V148.396H683V110.802H658V74.1979H745V185H608ZM689 104.866V154.332H639V129.599H614V55.4011H639V30.6684H739V5.93583H614V30.6684H589V55.4011H564V129.599H589V154.332H614V179.064H739V80.1337H664V104.866H689Z" fill="#AD3E00"/>
<path fill-rule="evenodd" clip-rule="evenodd" d="M372 185V0H434V24.7326H459V49.4652H484V74.1979H497V0H559V185H497V135.535H472V110.802H447V86.0695H434V185H372ZM428 80.1337H453V104.866H478V129.599H503V179.064H553V5.93583H503V80.1337H478V55.4011H453V30.6684H428V5.93583H378V179.064H428V80.1337Z" fill="#AD3E00"/>
<path fill-rule="evenodd" clip-rule="evenodd" d="M211 185V160.267H186V24.7326H211V0H348V24.7326H373V160.267H348V185H211ZM342 154.332H367V30.6684H342V5.93583H217V30.6684H192V154.332H217V179.064H342V154.332ZM317 154.332H242V30.6684H317V154.332ZM311 36.6043H248V148.396H311V36.6043Z" fill="#AD3E00"/>
<path fill-rule="evenodd" clip-rule="evenodd" d="M0 185V0H162V24.7326H187V110.802H162V135.535H62V185H0ZM56 129.599H156V104.866H181V30.6684H156V5.93583H6V179.064H56V129.599ZM131 104.866H56V30.6684H131V104.866ZM125 36.6043H62V98.9305H125V36.6043Z" fill="#AD3E00"/>
<defs>
<linearGradient id="logo-color" x1="385" y1="6" x2="385" y2="204" gradientUnits="userSpaceOnUse">
<stop stop-color="#FFE600"/>
<stop offset="0.5" stop-color="#FFCC00"/>
<stop offset="1" stop-color="#CB5623"/>
</linearGradient>
</defs>
</svg>
