<svg width="251" height="82" viewBox="0 0 251 82" fill="none" xmlns="http://www.w3.org/2000/svg">
<path d="M190 0.5H189.5V1V81V81.5H190H250H250.5V81V30.0909V29.5909H250H224.286H223.786V30.0909V58.6818H216.214V23.3182H250H250.5V22.8182V1V0.5H250H190ZM152.714 81.5H153.214V81V23.3182H160.786V81V81.5H161.286H187H187.5V81V1V0.5H187H127H126.5V1V81V81.5H127H152.714ZM64 0.5H63.5V1V81V81.5H64H124H124.5V81V1V0.5H124H64ZM1 0.5H0.5V1V81V81.5H1H26.7143H27.2143V81V66.9546H61H61.5V66.4546V1V0.5H61H1ZM90.2143 23.3182H97.7857V58.6818H90.2143V23.3182ZM27.2143 23.3182H34.7857V44.1364H27.2143V23.3182Z" fill="white" />
</svg>
