<svg width="256" height="82" viewBox="0 0 256 82" fill="none" xmlns="http://www.w3.org/2000/svg">
<g class="logo">
<path d="M195 0.500122H194.5V1.00012V81.0001V81.5001H195H255H255.5V81.0001V30.091V29.591H255H229.286H228.786V30.091V58.6819H221.214V23.3183H255H255.5V22.8183V1.00012V0.500122H255H195ZM156.214 81.5H156.714V81V23.3182H164.286V81V81.5H164.786H190.5H191V81V1.00004V0.500038H190.5H130.5H130V1.00004V81V81.5H130.5H156.214ZM66 0.499992H65.5V0.999992V81V81.5H66H126H126.5V81V0.999992V0.499992H126H66ZM1 0.499992H0.5V0.999992V81V81.5H1H26.7143H27.2143V81V66.9545H61H61.5V66.4545V0.999992V0.499992H61H1ZM92.2143 23.3182H99.7857V58.6818H92.2143V23.3182ZM27.2143 23.3182H34.7857V44.1364H27.2143V23.3182Z" fill="white" stroke="black"/>
</g>
</svg>
