<svg width="300" height="61" viewBox="0 0 300 61" fill="none" xmlns="http://www.w3.org/2000/svg">
<path d="M250.761 60.8644V48.6915H238.588V12.1729H250.761V0H299.453V12.1729H262.934V48.6915H275.107V24.3457H299.453V48.6915H287.28V60.8644H250.761Z" fill="white"/>
<path d="M150.944 60.8644V0H175.289V12.1729H187.462V24.3457H199.635V0H223.981V60.8644H199.635V48.6915H187.462V36.5186H175.289V60.8644H150.944Z" fill="white"/>
<path d="M87.6446 60.8644V48.6915H75.4717V12.1729H87.6446V0H124.163V12.1729H136.336V48.6915H124.163V60.8644H87.6446ZM99.8174 48.2046H111.99V12.6598H99.8174V48.2046Z" fill="white"/>
<path d="M0 60.8644V0H48.6915V12.1729H60.8644V24.3457H48.6915V36.5186H24.3457V60.8644H0ZM24.3457 24.3457H36.0317V12.1729H24.3457V24.3457Z" fill="white"/>
</svg>
